<svg width="243" height="100" viewBox="0 0 243 100" fill="none" xmlns="http://www.w3.org/2000/svg">
<path d="M85.3116 12.4538C83.9079 13.5711 82.5043 14.0562 79.4425 14.0562H76.4643V21.5873H72.7703V0.40161H79.0688C82.5321 0.40161 83.9357 0.886719 85.1406 1.83308C86.7152 3.03392 87.6019 5.04195 87.6019 7.15735C87.6019 9.27274 86.6874 11.3961 85.3116 12.4538ZM82.4764 4.43756C81.5301 3.86497 80.4446 3.77749 79.0966 3.77749H76.4643V10.6764H79.2119C80.5002 10.6764 81.5023 10.5889 82.4486 10.0481C83.3353 9.5312 83.9079 8.50134 83.9079 7.21301C83.9079 5.9565 83.3632 4.95448 82.4764 4.43756Z" fill="white"/>
<path d="M105.44 21.5873V12.4538H96.7037V21.5873H92.8665V0.40161H96.7037V9.0779H105.436V0.40161H109.273V21.5873H105.44Z" fill="white"/>
<path d="M126.307 21.9889C119.893 21.9889 115.197 16.8913 115.197 11.1655C115.197 4.86699 119.981 0 126.339 0C132.637 0 137.504 4.92664 137.504 10.9945C137.504 17.0663 132.665 21.9889 126.307 21.9889ZM126.367 3.40769C122.013 3.40769 119.039 6.95853 119.039 10.9945C119.039 15.0901 122.1 18.5813 126.367 18.5813C130.777 18.5813 133.667 14.8316 133.667 11.0223C133.667 7.21301 130.804 3.40769 126.367 3.40769Z" fill="white"/>
<path d="M149.441 3.77749V21.5873H145.604V3.77749H140.964V0.39763H154.05V3.77749H149.441Z" fill="white"/>
<path d="M168.623 21.9889C162.209 21.9889 157.513 16.8913 157.513 11.1655C157.513 4.86699 162.297 0 168.651 0C174.949 0 179.816 4.92664 179.816 10.9945C179.816 17.0663 174.977 21.9889 168.623 21.9889ZM168.679 3.40769C164.329 3.40769 161.35 6.95853 161.35 10.9945C161.35 15.0901 164.416 18.5813 168.679 18.5813C173.088 18.5813 175.979 14.8316 175.979 11.0223C175.979 7.21301 173.116 3.40769 168.679 3.40769Z" fill="white"/>
<path d="M241.445 76.9772L241.429 77.3589C241.155 83.4109 239.031 88.2659 235.119 91.7889C228.2 98.0198 218.009 97.4949 215.376 97.4631C215.349 97.4631 214.919 97.4631 214.895 97.4631V69.2672C215.022 69.2672 215.547 69.2672 215.679 69.2632C220.617 69.2314 226.367 68.786 227.325 81.1166L227.353 81.4824H228.303V55.7955H227.365L227.325 56.1494C226.061 67.8476 220.152 67.7999 215.337 67.8118C215.321 67.8118 214.907 67.8118 214.895 67.8118V40.9241C215.531 40.9201 216.573 40.9122 217.213 40.9002C226.295 40.7611 235.294 39.8266 239.123 59.1475L239.186 59.4696H240.153V39.429H187.948V40.8088H192.568V83.1047C192.457 89.1805 190.079 92.9103 187.992 94.8865C185.471 97.2762 181.94 98.5288 178.747 98.4174C166.969 97.992 166.639 86.1466 166.631 85.6336V40.8048H171.995V39.425H151.131V40.8048H156.666L156.65 80.6792C156.65 91.5822 162.189 99.9921 178.365 99.9921C189.212 99.9921 194.191 90.9818 194.079 83.5103V40.8048H198.998V40.8128H204.831V97.4393H199.567V98.8628H242.534V76.9732H241.445V76.9772Z" fill="white"/>
<path d="M132.781 73.4264V74.8101H137.584V87.2043C137.576 96.4611 131.437 98.5208 126.621 98.6162C121.424 98.6997 117.941 96.1549 115.969 90.8704C114.024 85.7171 112.999 80.7428 112.999 69.1598C112.999 65.0364 113.635 51.513 116.681 45.5962C117.838 43.3655 119.993 39.2183 126.419 39.2183C126.438 39.2183 126.458 39.2183 126.478 39.2183C134.311 39.2501 138.813 44.6737 142.463 59.2151L142.538 59.5173H143.425V37.6755H142.57L142.467 37.922C141.632 39.9221 139.64 40.3595 137.922 40.3197C137.103 40.2879 136.355 40.1686 135.807 40.0573C135.321 39.9499 135.011 39.8505 134.995 39.8465C134.24 39.6079 133.572 39.3813 132.96 39.1785C132.681 39.0831 132.411 39.0035 132.14 38.928C130.164 38.2719 128.689 37.8544 126.403 37.8544C116.104 37.8544 101.932 48.32 101.932 69.9113C101.932 87.5462 112.525 100 126.983 100C129.675 100 131.898 99.1173 133.989 98.147C134.379 97.988 134.765 97.825 135.135 97.65C137.178 96.6798 139.115 95.7613 141.294 95.6459C141.381 95.642 141.469 95.642 141.556 95.638C141.616 95.638 141.676 95.634 141.739 95.634C143 95.634 145.529 96.4492 146.018 98.8747L146.081 99.1928L146.928 99.1968V74.8181H151.477V73.4343H132.781V73.4264Z" fill="white"/>
<path d="M71.2752 37.9816C59.06 37.9816 45.6758 50.1889 45.6758 68.8258C45.6758 87.4627 59.5014 99.833 71.2752 99.833C83.053 99.833 96.8746 87.4627 96.8746 68.8258C96.8786 50.1889 83.4904 37.9816 71.2752 37.9816ZM85.5501 66.5355C85.5541 66.6706 85.5581 66.8058 85.5581 66.9371C85.562 67.0365 85.562 67.1319 85.562 67.2313C85.562 67.3069 85.566 67.3864 85.566 67.4619C85.566 67.5852 85.57 67.7045 85.57 67.8198C85.57 67.8635 85.57 67.9113 85.57 67.955C85.57 68.0822 85.574 68.2015 85.574 68.3208C85.574 68.3526 85.574 68.3844 85.574 68.4163C85.574 68.5594 85.574 68.6946 85.574 68.8258C85.574 68.9292 85.574 69.0405 85.574 69.1558C85.5581 72.6033 85.2678 85.9319 81.7766 92.5763C79.8083 96.4253 75.9155 98.4612 71.2752 98.4612C66.6349 98.4612 62.7421 96.4253 60.7698 92.5723C57.2786 85.9319 56.9883 72.5993 56.9724 69.1558C56.9724 69.0405 56.9724 68.9292 56.9724 68.8258C56.9724 68.6986 56.9724 68.5634 56.9724 68.4163C56.9724 68.3844 56.9724 68.3526 56.9724 68.3208C56.9724 68.2015 56.9724 68.0822 56.9764 67.955C56.9764 67.9113 56.9764 67.8635 56.9764 67.8198C56.9764 67.7045 56.9804 67.5852 56.9804 67.4619C56.9804 67.3864 56.9844 67.3069 56.9844 67.2313C56.9844 67.1359 56.9884 67.0365 56.9884 66.9371C56.9923 66.8058 56.9923 66.6706 56.9963 66.5355C56.9963 66.4877 57.0003 66.44 57.0003 66.3923C57.1355 61.08 57.7995 51.0995 60.7698 45.2344C63.1715 40.3754 67.9868 39.3535 71.2712 39.3535C74.5517 39.3535 79.367 40.3754 81.7726 45.2384C84.7429 51.0995 85.403 61.08 85.5382 66.3923C85.5461 66.44 85.5501 66.4877 85.5501 66.5355Z" fill="white"/>
<path d="M39.095 39.433V40.7969H43.958L30.9873 84.2022L15.3247 40.7969H19.7702V40.0016H19.7741V39.433H0V40.7969H5.72587L27.6671 99.1849H27.9812L45.4571 40.7969H50.8132V39.433H39.095Z" fill="white"/>
</svg>
